<?xml version="1.0" encoding="UTF-8" standalone="no"?>
<!DOCTYPE svg PUBLIC "-//W3C//DTD SVG 1.1//EN" "http://www.w3.org/Graphics/SVG/1.1/DTD/svg11.dtd">
<svg width="100%" height="100%" viewBox="0 0 906 200" version="1.1" xmlns="http://www.w3.org/2000/svg" xmlns:xlink="http://www.w3.org/1999/xlink" xml:space="preserve" xmlns:serif="http://www.serif.com/" style="fill-rule:evenodd;clip-rule:evenodd;stroke-linejoin:round;stroke-miterlimit:2;">
    <g transform="matrix(6.248276,0,0,6.25,0,0)">
        <path d="M98.804,0L104.491,0L104.491,31.731L98.804,31.731L98.804,0ZM144.861,13.368L144.861,8.444L138.98,8.444L138.98,2.024L133.293,2.024L133.293,25.43C133.293,27.58 133.834,29.219 134.901,30.301C135.967,31.384 137.629,31.933 139.84,31.933L144.861,31.933L144.861,27.009L141.187,27.009C140.388,27.009 139.815,26.833 139.483,26.486C139.178,26.169 138.98,25.367 138.98,24.443L138.98,13.369L144.861,13.368ZM60.172,25.555L66.052,8.444L72.027,8.444L63.538,31.732L56.805,31.732L48.316,8.444L54.291,8.444L60.172,25.555ZM124.023,20.11C124.023,21.584 123.799,22.867 123.359,23.922C122.922,24.971 122.296,25.776 121.498,26.313C120.7,26.849 119.719,27.122 118.582,27.122C116.956,27.122 115.729,26.587 114.936,25.534C114.134,24.469 113.727,22.856 113.727,20.738L113.727,8.444L108.04,8.444L108.04,21.367C108.04,23.379 108.291,25.086 108.788,26.439C109.285,27.796 109.968,28.901 110.817,29.72C111.666,30.539 112.657,31.13 113.763,31.478C114.863,31.825 116.047,32 117.281,32C119.059,32 120.531,31.677 121.654,31.041C122.678,30.459 123.537,29.779 124.209,29.016L124.718,31.731L129.71,31.731L129.71,8.444L124.023,8.444L124.023,20.11ZM90.11,9.672C88.318,8.679 86.189,8.175 83.785,8.175C81.41,8.175 79.29,8.679 77.483,9.672C75.673,10.668 74.252,12.075 73.257,13.853C72.264,15.629 71.761,17.734 71.761,20.11C71.761,22.456 72.264,24.547 73.257,26.323C74.251,28.101 75.673,29.507 77.483,30.503C79.29,31.496 81.41,32 83.785,32C86.189,32 88.318,31.496 90.11,30.503C91.904,29.507 93.318,28.101 94.313,26.324C95.306,24.546 95.81,22.456 95.81,20.11C95.81,17.735 95.306,15.63 94.313,13.852C93.318,12.074 91.904,10.668 90.11,9.672ZM87.105,26.312C86.189,26.908 85.072,27.211 83.785,27.211C82.528,27.211 81.418,26.908 80.487,26.311C79.554,25.714 78.822,24.87 78.311,23.804C77.798,22.737 77.538,21.494 77.538,20.11C77.538,18.697 77.798,17.447 78.311,16.395C78.822,15.343 79.554,14.499 80.488,13.886C81.419,13.274 82.529,12.964 83.785,12.964C85.071,12.964 86.188,13.274 87.104,13.886C88.023,14.499 88.749,15.343 89.26,16.395C89.773,17.45 90.033,18.7 90.033,20.11C90.033,21.491 89.773,22.734 89.26,23.804C88.749,24.871 88.024,25.714 87.105,26.312ZM5.911,7.831L0,7.831L0,31.732L5.911,31.732L5.911,7.831ZM24.446,9.198C24.446,4.126 20.316,0 15.24,0L0,0L0,5.104L14.515,5.104C16.812,5.104 18.715,6.909 18.757,9.128C18.778,10.238 18.362,11.287 17.584,12.079C16.805,12.872 15.766,13.309 14.656,13.309L9.001,13.309C8.801,13.309 8.637,13.472 8.637,13.673L8.637,18.209C8.637,18.287 8.661,18.36 8.706,18.422L18.299,31.732L25.322,31.732L15.706,18.386C20.549,18.143 24.446,14.074 24.446,9.198ZM42.62,9.537C40.918,8.633 38.896,8.175 36.612,8.175C34.324,8.175 32.279,8.679 30.533,9.673C28.784,10.668 27.408,12.075 26.443,13.854C25.48,15.628 24.991,17.749 24.991,20.155C24.991,22.501 25.487,24.591 26.466,26.368C27.447,28.148 28.861,29.547 30.67,30.526C32.475,31.504 34.64,32 37.105,32C39.061,32 40.817,31.634 42.325,30.911C43.833,30.186 45.064,29.199 45.984,27.976C46.858,26.815 47.448,25.501 47.737,24.072L47.768,23.92L42.112,23.92L42.085,24.011C41.774,25.077 41.169,25.919 40.289,26.515C39.343,27.156 38.182,27.481 36.837,27.481C35.697,27.481 34.667,27.236 33.776,26.755C32.89,26.276 32.197,25.59 31.717,24.718C31.235,23.842 30.961,22.788 30.903,21.592L30.903,21.405L47.987,21.405L48.006,21.301C48.066,20.973 48.104,20.635 48.12,20.296C48.135,19.965 48.143,19.634 48.143,19.3C48.112,17.044 47.608,15.06 46.644,13.401C45.676,11.741 44.323,10.441 42.62,9.537ZM40.548,13.922C41.52,14.74 42.124,15.902 42.346,17.379L31.099,17.379C31.228,16.421 31.546,15.591 32.045,14.91C32.57,14.197 33.241,13.636 34.042,13.243C34.843,12.85 35.723,12.65 36.656,12.65C38.234,12.65 39.544,13.078 40.548,13.922Z" style="fill:white;"/>
    </g>
</svg>
